{"title":"Le lit de la vierge / Virgin's Bed (Philippe Garrel, 1969)","uid":9434534,"size":1447704812,"categoryP":"video","categoryS":"movies","magnet":"?xt=urn:btih:4edcfb38bc40e2f918c5e7e119a31135fb40c160&amp;dn=Le+lit+de+la+vierge+%2F+Virgin%27s+Bed+%28Philippe+Garrel%2C+1969%29&amp;tr=udp%3A%2F%2Ftracker.openbittorrent.com%3A80&amp;tr=udp%3A%2F%2Fopen.demonii.com%3A1337&amp;tr=udp%3A%2F%2Ftracker.coppersurfer.tk%3A6969&amp;tr=udp%3A%2F%2Fexodus.desync.com%3A6969","seeders":1,"leechers":1,"uploader":"moonflux","files":1,"time":1388872210,"description":"Philippe Garrel's 1969 feature La lit de la vierge (The Virgin's Bed) represents a spiritual and thematic cousin to his 2005 film The Regular Lovers; whereas the latter revisits the tumultuous Parisian events of May 1968 over 35 years later, and carefully reconstructs those days with docudrama technique, Garrel and his cast and crew of shot La lit in the summer of '68 (reportedly under the influence of acid and without a script), just a few months after the bouleversement of the riots. In that picture, the filmmakers adapt the Biblical story of Jesus very loosely and non-narratively, using Christ as a metaphoric symbol of the late '60s protest movement - the &quot;ultimate hippie.&quot; The picture also reflects the filmmakers' self-mythologies of existing and functioning as a &quot;religious sect.&quot; Pierre Clementi plays Jesus; Zouzou portrays both the Virgin Mary and Mary Magdalene. ~ Nathan Southern, Rovi \n\nGeneral\nUnique ID                                : 190448354729261952554585894945978630201 (0x8F4704D8273B34FF5B2F95F7D128C039)\nComplete name                            : Le.lit.de.la.vierge.1969.DVDRip.x264-HANDJOB.mkv\nFormat                                   : Matroska\nFormat version                           : Version 4 / Version 2\nFile size                                : 1.35 GiB\nDuration                                 : 1h 35mn\nOverall bit rate                         : 2 030 Kbps\nEncoded date                             : UTC 2013-12-15 21:05:19\nWriting application                      : mkvmerge v6.2.0 ('Promised Land') built on Apr 28 2013 18:50:30\nWriting library                          : libebml v1.3.0 + libmatroska v1.4.0\n\nVideo\nID                                       : 1\nFormat                                   : AVC\nFormat/Info                              : Advanced Video Codec\nFormat profile                           : &lt;a class=&quot;__cf_email__&quot; href=&quot;/cdn-cgi/l/email-protection&quot; data-cfemail=&quot;eaa2838d82aaa6d9c4db&quot;&gt;[email&amp;#160;protected]&lt;/a&gt;&lt;script cf-hash='f9e31' type=&quot;text/javascript&quot;&gt;\n/* &lt;![CDATA[ */!function(){try{var t=&quot;currentScript&quot;in document?document.currentScript:function(){for(var t=document.getElementsByTagName(&quot;script&quot;),e=t.length;e--;)if(t[e].getAttribute(&quot;cf-hash&quot;))return t[e]}();if(t&amp;&amp;t.previousSibling){var e,r,n,i,c=t.previousSibling,a=c.getAttribute(&quot;data-cfemail&quot;);if(a){for(e=&quot;&quot;,r=parseInt(a.substr(0,2),16),n=2;a.length-n;n+=2)i=parseInt(a.substr(n,2),16)^r,e+=String.fromCharCode(i);e=document.createTextNode(e),c.parentNode.replaceChild(e,c)}}}catch(u){}}();/* ]]&gt; */&lt;/script&gt;\nFormat settings, CABAC                   : Yes\nFormat settings, ReFrames                : 12 frames\nCodec ID                                 : V_MPEG4/ISO/AVC\nDuration                                 : 1h 35mn\nBit rate                                 : 1 798 Kbps\nWidth                                    : 716 pixels\nHeight                                   : 436 pixels\nDisplay aspect ratio                     : 2.35:1\nOriginal display aspect ratio            : 2.35:1\nFrame rate mode                          : Constant\nFrame rate                               : 25.000 fps\nColor space                              : YUV\nChroma subsampling                       : 4:2:0\nBit depth                                : 8 bits\nScan type                                : Progressive\nBits/(Pixel*Frame)                       : 0.230\nStream size                              : 1.19 GiB (89%)\nWriting library                          : x264 core 138 r2358 9e941d1\nEncoding settings                        : cabac=1 / ref=12 / deblock=1:-3:-3 / analyse=0x3:0x133 / me=umh / subme=10 / psy=1 / psy_rd=1.00:0.00 / mixed_ref=1 / me_range=32 / chroma_me=1 / trellis=2 / 8x8dct=1 / cqm=0 / deadzone=21,11 / fast_pskip=0 / chroma_qp_offset=-2 / threads=6 / lookahead_threads=1 / sliced_threads=0 / nr=0 / decimate=1 / interlaced=0 / bluray_compat=0 / constrained_intra=0 / bframes=11 / b_pyramid=2 / b_adapt=2 / b_bias=0 / direct=3 / weightb=1 / open_gop=0 / weightp=2 / keyint=250 / keyint_min=25 / scenecut=40 / intra_refresh=0 / rc_lookahead=120 / rc=crf / mbtree=1 / crf=17.1 / qcomp=0.60 / qpmin=0 / qpmax=69 / qpstep=4 / ip_ratio=1.40 / aq=1:1.00\nLanguage                                 : English\nDefault                                  : Yes\nForced                                   : No\nColor primaries                          : BT.601 PAL\nTransfer characteristics                 : BT.709\nMatrix coefficients                      : BT.601\n\nAudio\nID                                       : 2\nFormat                                   : AC-3\nFormat/Info                              : Audio Coding 3\nMode extension                           : CM (complete main)\nFormat settings, Endianness              : Big\nCodec ID                                 : A_AC3\nDuration                                 : 1h 35mn\nBit rate mode                            : Constant\nBit rate                                 : 192 Kbps\nChannel(s)                               : 2 channels\nChannel positions                        : Front: L R\nSampling rate                            : 48.0 KHz\nBit depth                                : 16 bits\nCompression mode                         : Lossy\nStream size                              : 131 MiB (9%)\nLanguage                                 : French\nDefault                                  : Yes\nForced                                   : No\n\nText #1\nID                                       : 3\nFormat                                   : UTF-8\nCodec ID                                 : S_TEXT/UTF8\nCodec ID/Info                            : UTF-8 Plain Text\nLanguage                                 : English\nDefault                                  : Yes\nForced                                   : No\n\nText #2\nID                                       : 4\nFormat                                   : UTF-8\nCodec ID                                 : S_TEXT/UTF8\nCodec ID/Info                            : UTF-8 Plain Text\nLanguage                                 : Spanish\nDefault                                  : No\nForced                                   : No\n\nText #3\nID                                       : 5\nFormat                                   : UTF-8\nCodec ID                                 : S_TEXT/UTF8\nCodec ID/Info                            : UTF-8 Plain Text\nLanguage                                 : Italian\nDefault                                  : No\nForced                                   : No\n\nText #4\nID                                       : 6\nFormat                                   : UTF-8\nCodec ID                                 : S_TEXT/UTF8\nCodec ID/Info                            : UTF-8 Plain Text\nLanguage                                 : Portuguese\nDefault                                  : No\nForced                                   : No\n\nText #5\nID                                       : 7\nFormat                                   : UTF-8\nCodec ID                                 : S_TEXT/UTF8\nCodec ID/Info                            : UTF-8 Plain Text\nLanguage                                 : Russian\nDefault                                  : No\nForced                                   : No\n\nText #6\nID                                       : 8\nFormat                                   : VobSub\nMuxing mode                              : zlib\nCodec ID                                 : S_VOBSUB\nCodec ID/Info                            : The same subtitle format used on DVDs\nLanguage                                 : German\nDefault                                  : No\nForced                                   : No\n","torrent":{"xt":"urn:btih:4edcfb38bc40e2f918c5e7e119a31135fb40c160","amp;dn":"Le+lit+de+la+vierge+%2F+Virgin%27s+Bed+%28Philippe+Garrel%2C+1969%29","amp;tr":["udp%3A%2F%2Ftracker.openbittorrent.com%3A80","udp%3A%2F%2Fopen.demonii.com%3A1337","udp%3A%2F%2Ftracker.coppersurfer.tk%3A6969","udp%3A%2F%2Fexodus.desync.com%3A6969"],"infoHash":"4edcfb38bc40e2f918c5e7e119a31135fb40c160","infoHashBuffer":{"type":"Buffer","data":[78,220,251,56,188,64,226,249,24,197,231,225,25,163,17,53,251,64,193,96]},"announce":[],"urlList":[]}}